<svg width="48" height="48" viewBox="0 0 48 48" fill="none" xmlns="http://www.w3.org/2000/svg">
<path d="M0 0H48V48H0V0Z" fill="#161616"/>
<path d="M36.4021 35.4375C36.9532 35.4375 37.4243 35.2419 37.8154 34.8508C38.2065 34.4597 38.4021 33.9886 38.4021 33.4375C38.4021 32.8864 38.2065 32.4153 37.8154 32.0242C37.4243 31.6331 36.9532 31.4375 36.4021 31.4375C35.8332 31.4375 35.3577 31.6331 34.9754 32.0242C34.5932 32.4153 34.4021 32.8864 34.4021 33.4375C34.4021 33.9886 34.5977 34.4597 34.9888 34.8508C35.3799 35.2419 35.851 35.4375 36.4021 35.4375V35.4375Z" fill="#CF000F"/>
<path d="M23.268 35H28.6L23.981 27.033C26.368 25.824 27.98 23.406 27.98 20.74C27.98 16.617 24.663 13.3 20.54 13.3H11.86V35H16.82V27.87H19.176L23.268 35ZM16.82 17.95H20.54C21.904 17.95 23.02 19.159 23.02 20.74C23.02 22.321 21.904 23.53 20.54 23.53H16.82V17.95Z" fill="white"/>
</svg>
