<svg width="124" height="24" viewBox="0 0 124 24" fill="none" xmlns="http://www.w3.org/2000/svg">
<path d="M12.268 23H17.6L12.981 15.033C15.368 13.824 16.98 11.406 16.98 8.74C16.98 4.617 13.663 1.3 9.54 1.3H0.86V23H5.82V15.87H8.176L12.268 23ZM5.82 5.95H9.54C10.904 5.95 12.02 7.159 12.02 8.74C12.02 10.321 10.904 11.53 9.54 11.53H5.82V5.95ZM26.4302 23.434C30.9872 23.434 34.6452 19.869 34.6452 15.25C34.6452 10.631 30.9872 7.066 26.4302 7.066C21.8732 7.066 18.2152 10.631 18.2152 15.25C18.2152 19.869 21.8732 23.434 26.4302 23.434ZM26.4302 18.908C24.4152 18.908 22.8652 17.451 22.8652 15.25C22.8652 13.049 24.4152 11.592 26.4302 11.592C28.4452 11.592 29.9952 13.049 29.9952 15.25C29.9952 17.451 28.4452 18.908 26.4302 18.908ZM46.5443 7.066C44.4673 7.066 42.9483 7.779 41.9253 8.957V1.3H37.2753V23H41.9253V21.543C42.9483 22.721 44.4673 23.434 46.5443 23.434C50.6053 23.434 53.9533 19.869 53.9533 15.25C53.9533 10.631 50.6053 7.066 46.5443 7.066ZM45.6143 19.032C43.4753 19.032 41.9253 17.575 41.9253 15.25C41.9253 12.925 43.4753 11.468 45.6143 11.468C47.7533 11.468 49.3033 12.925 49.3033 15.25C49.3033 17.575 47.7533 19.032 45.6143 19.032ZM60.7438 17.11H71.7488C71.8728 16.521 71.9348 15.901 71.9348 15.25C71.9348 10.569 68.5868 7.066 64.0608 7.066C59.1628 7.066 55.8148 10.631 55.8148 15.25C55.8148 19.869 59.1008 23.434 64.4018 23.434C67.3468 23.434 69.6408 22.349 71.1598 20.241L67.4398 18.102C66.8198 18.784 65.7348 19.28 64.4638 19.28C62.7588 19.28 61.3328 18.722 60.7438 17.11ZM60.6508 13.638C61.0848 12.057 62.2628 11.189 64.0298 11.189C65.4248 11.189 66.8198 11.84 67.3158 13.638H60.6508ZM79.2222 10.259V7.5H74.5722V23H79.2222V15.994C79.2222 12.925 81.9502 12.15 83.8722 12.46V7.19C81.9192 7.19 79.8422 8.182 79.2222 10.259ZM95.5829 11.964V7.5H92.3899V3.16L87.7399 4.555V7.5H85.2599V11.964H87.7399V17.451C87.7399 21.791 89.5069 23.62 95.5829 23V18.784C93.5369 18.908 92.3899 18.784 92.3899 17.451V11.964H95.5829ZM114.957 23.434C119.669 23.434 123.017 20.954 123.017 16.769C123.017 12.181 119.328 11.034 116.042 10.042C112.663 9.019 112.136 8.337 112.136 7.345C112.136 6.477 112.911 5.702 114.461 5.702C116.445 5.702 117.468 6.663 118.212 8.213L122.397 5.764C120.816 2.571 118.026 0.865999 114.461 0.865999C110.71 0.865999 107.176 3.284 107.176 7.469C107.176 11.623 110.338 13.173 113.562 14.072C116.817 14.971 118.057 15.498 118.057 16.831C118.057 17.668 117.468 18.598 115.112 18.598C112.663 18.598 111.33 17.389 110.555 15.591L106.277 18.071C107.486 21.264 110.4 23.434 114.957 23.434Z" fill="white"/>
<path d="M101.153 23.434C102.765 23.434 104.098 22.101 104.098 20.489C104.098 18.877 102.765 17.544 101.153 17.544C99.5415 17.544 98.2085 18.877 98.2085 20.489C98.2085 22.101 99.5415 23.434 101.153 23.434Z" fill="#CF000F"/>
</svg>
